<svg viewBox="0 0 500 500" xmlns="http://www.w3.org/2000/svg"><path d="m76.3 475h174.6c24.3 0 40.5-3.6 40.5-10.8s-17.1-11.7-40.5-11.7c-35.1 0-45-11.7-45-36.9v-351.9c0-10.8 6.3-16.2 18.9-16.2h32.4c53.1 0 98.1 36.8999 98.1 116.1 0 69.3-50.4 104.4-85.5 104.4-18.9 0-30.6 3.6-30.6 11.7s12.6 9.9 30.6 9.9h17.1c85.5 0 170.1-42.3 170.1-141.3 0-78.3-59.4-123.3-144.9-123.3h-238.4999c-17.1 0-30.6 4.5-30.6 11.7s12.5999 10.8 29.6999 10.8c19.8 0 31.5 8.1 31.5 32.4v335.7c0 27-7.1999 36.9-30.5999 36.9-16.2 0-30.6 4.5-30.6 11.7s14.3999 10.8 33.2999 10.8z" fill="#fafafa"/></svg>