<svg viewBox="0 0 500 500" xmlns="http://www.w3.org/2000/svg">
<path d="M76.3 475H250.9C275.2 475 291.4 471.4 291.4 464.2C291.4 457 274.3 452.5 250.9 452.5C215.8 452.5 205.9 440.8 205.9 415.6V63.7C205.9 52.9 212.2 47.5 224.8 47.5H257.2C310.3 47.5 355.3 84.3999 355.3 163.6C355.3 232.9 304.9 268 269.8 268C250.9 268 239.2 271.6 239.2 279.7C239.2 287.8 251.8 289.6 269.8 289.6H286.9C372.4 289.6 457 247.3 457 148.3C457 70 397.6 25 312.1 25H73.6001C56.5001 25 43.0001 29.5 43.0001 36.7C43.0001 43.9 55.6 47.5 72.7 47.5C92.5 47.5 104.2 55.6 104.2 79.9V415.6C104.2 442.6 97.0001 452.5 73.6001 452.5C57.4001 452.5 43.0001 457 43.0001 464.2C43.0001 471.4 57.4 475 76.3 475Z" fill="#FFFFFF"/>
</svg>
